<?xml version="1.0" encoding="UTF-8"?>
<!DOCTYPE svg PUBLIC "-//W3C//DTD SVG 1.1//EN" "http://www.w3.org/Graphics/SVG/1.1/DTD/svg11.dtd">
<!-- Creator: CorelDRAW 2020 (64 Bit) -->
<svg xmlns="http://www.w3.org/2000/svg" xml:space="preserve" width="264.583mm" height="264.583mm" version="1.1" style="shape-rendering:geometricPrecision; text-rendering:geometricPrecision; image-rendering:optimizeQuality; fill-rule:evenodd; clip-rule:evenodd"
viewBox="0 0 26458.32 26458.32"
 xmlns:xlink="http://www.w3.org/1999/xlink"
 xmlns:xodm="http://www.corel.com/coreldraw/odm/2003">
 <defs>
  <style type="text/css">
   <![CDATA[
    .fil0 {fill:#1572B6}
    .fil1 {fill:white}
   ]]>
  </style>
 </defs>
 <g id="Camada_x0020_1">
  <metadata id="CorelCorpID_0Corel-Layer"/>
  <g id="icon-css">
   <path class="fil0" d="M-0 18629.87c0,2833.8 162.67,4459.33 1702.45,6074.42 622.01,652.44 1551.42,1178.98 2437.93,1439.06 1073.54,314.94 2387.97,314.86 3558.75,314.86l10878.93 0c1240.16,0 2456.32,8.18 3617.49,-282.9 515.65,-129.27 976.63,-336.73 1390.87,-573.16 379.49,-216.59 802.56,-539.43 1104.96,-833.23 1713.95,-1665.22 1766.71,-3751.72 1766.71,-6035.68l0 -10827.29c0,-1840.9 38.42,-3519.58 -883.78,-5084.25 -223.91,-379.9 -572.2,-826.16 -869.93,-1119.53 -1751.55,-1725.93 -3867.6,-1702.08 -6216.76,-1702.08l-10581.77 0c-2401.78,0 -4360.47,-6.82 -6126.19,1676.51 -167.77,159.92 -305.36,331.17 -461.43,520.54 -143.32,173.87 -279.11,369.47 -405.47,575.98 -246.14,402.21 -439.16,842.88 -591.52,1347.4 -320.48,1061.3 -321.24,2390.04 -321.24,3552.87l0 10956.48z"/>
   <polygon class="fil1" points="21213.44,6307.42 20439.3,15005.58 20441.6,15052.53 20438.37,15160.56 20438.37,15159.62 19888.34,21241.51 19827.73,21781.84 13268.02,23596.17 13268.02,23596.41 13262.92,23600.81 6714.54,21776.28 6271.15,16747.98 9482.3,16747.98 9710.13,19304.81 13268.95,20269.33 13268.02,20271.18 13268.02,20270.71 16840,19292.54 17217.49,15128.86 9750.38,15128.86 9686.31,14424.99 9540.36,12776.04 9463.79,11890.62 17501.3,11890.62 17793.68,8652.37 5551.79,8652.37 5487.71,7948.98 5342,6299.55 5265.21,5414.11 21290.02,5414.11 "/>
  </g>
 </g>
</svg>
