<?xml version="1.0" encoding="UTF-8"?>
<!DOCTYPE svg PUBLIC "-//W3C//DTD SVG 1.1//EN" "http://www.w3.org/Graphics/SVG/1.1/DTD/svg11.dtd">
<!-- Creator: CorelDRAW 2020 (64 Bit) -->
<svg xmlns="http://www.w3.org/2000/svg" xml:space="preserve" width="264.583mm" height="264.583mm" version="1.1" style="shape-rendering:geometricPrecision; text-rendering:geometricPrecision; image-rendering:optimizeQuality; fill-rule:evenodd; clip-rule:evenodd"
viewBox="0 0 26458.32 26458.32"
 xmlns:xlink="http://www.w3.org/1999/xlink"
 xmlns:xodm="http://www.corel.com/coreldraw/odm/2003">
 <defs>
  <style type="text/css">
   <![CDATA[
    .fil0 {fill:#7799CC}
    .fil1 {fill:white;fill-rule:nonzero}
   ]]>
  </style>
 </defs>
 <g id="Camada_x0020_1">
  <metadata id="CorelCorpID_0Corel-Layer"/>
  <g id="icon-curriculo">
   <path class="fil0" d="M0.23 18629.81c0,2833.77 162.67,4459.28 1702.43,6074.34 622,652.44 1551.39,1178.97 2437.89,1439.05 1073.52,314.93 2387.92,314.85 3558.68,314.85l10878.74 0c1240.13,0 2456.27,8.19 3617.41,-282.89 515.65,-129.27 976.62,-336.73 1390.86,-573.16 379.48,-216.58 802.54,-539.42 1104.93,-833.21 1713.92,-1665.21 1766.68,-3751.68 1766.68,-6035.61l0 -10827.15c0,-1840.89 38.42,-3519.55 -883.76,-5084.2 -223.9,-379.89 -572.19,-826.14 -869.91,-1119.51 -1751.53,-1725.91 -3867.54,-1702.06 -6216.65,-1702.06l-10581.59 0c-2401.73,0 -4360.38,-6.82 -6126.07,1676.49 -167.77,159.92 -305.36,331.16 -461.42,520.54 -143.32,173.86 -279.11,369.46 -405.47,575.96 -246.13,402.21 -439.15,842.87 -591.51,1347.39 -320.47,1061.28 -321.24,2390.01 -321.24,3552.83l0 10956.34z"/>
   <path class="fil1" d="M5787.88 5787.88c0,-1370.05 1110.38,-2480.43 2480.42,-2480.43l6201.08 0 0 4960.86c0,685.99 554.22,1240.21 1240.21,1240.21l4960.85 0 0 11161.92c0,1368.11 -1112.31,2480.43 -2480.42,2480.43l-9921.72 0c-1370.04,0 -2480.42,-1112.32 -2480.42,-2480.43l0 -14882.56zm7441.28 5500.03c-2168.28,0 -3925.59,1757.32 -3925.59,3925.6 0,2168.28 1757.31,3925.6 3925.59,3925.6 2168.28,0 3925.6,-1757.32 3925.6,-3925.6 0,-2168.28 -1757.32,-3925.6 -3925.6,-3925.6zm0 1962.8c609.85,0 1104.08,494.39 1104.08,1104.08 0,609.68 -493.77,1104.08 -1104.08,1104.08 -609.69,0 -1104.07,-494.4 -1104.07,-1104.08 0,-609.69 493.77,-1104.08 1104.07,-1104.08zm0 4907c-811.65,0 -1547.23,-330.15 -2080.86,-863.17 248.41,-641.14 861.78,-1099.64 1590.17,-1099.64l981.39 0c729.01,0 1342.38,458.21 1590.17,1099.64 -533.63,533.49 -1269.68,863.17 -2080.87,863.17zm2480.43 -9889.4l0 -4960.86 4960.85 4960.86 -4960.85 0z"/>
  </g>
 </g>
</svg>
