<?xml version="1.0" encoding="UTF-8"?>
<!DOCTYPE svg PUBLIC "-//W3C//DTD SVG 1.1//EN" "http://www.w3.org/Graphics/SVG/1.1/DTD/svg11.dtd">
<!-- Creator: CorelDRAW 2020 (64 Bit) -->
<svg xmlns="http://www.w3.org/2000/svg" xml:space="preserve" width="264.583mm" height="264.583mm" version="1.1" style="shape-rendering:geometricPrecision; text-rendering:geometricPrecision; image-rendering:optimizeQuality; fill-rule:evenodd; clip-rule:evenodd"
viewBox="0 0 26458.32 26458.32"
 xmlns:xlink="http://www.w3.org/1999/xlink"
 xmlns:xodm="http://www.corel.com/coreldraw/odm/2003">
 <defs>
  <style type="text/css">
   <![CDATA[
    .fil0 {fill:#F0593B}
    .fil1 {fill:white}
   ]]>
  </style>
 </defs>
 <g id="Camada_x0020_1">
  <metadata id="CorelCorpID_0Corel-Layer"/>
  <g id="icon-git">
   <path class="fil0" d="M0.02 18636.49c0,2833.8 162.67,4459.33 1702.44,6074.41 622.02,652.44 1551.42,1178.98 2437.93,1439.06 1073.55,314.94 2387.97,314.86 3558.75,314.86l10878.91 0c1240.16,0 2456.31,8.18 3617.48,-282.9 515.66,-129.27 976.64,-336.73 1390.88,-573.16 379.49,-216.58 802.56,-539.43 1104.95,-833.23 1713.95,-1665.22 1766.71,-3751.71 1766.71,-6035.67l0 -10827.27c0,-1840.9 38.42,-3519.58 -883.78,-5084.25 -223.9,-379.9 -572.2,-826.15 -869.92,-1119.52 -1751.56,-1725.93 -3867.6,-1702.08 -6216.75,-1702.08l-10581.77 0c-2401.77,0 -4360.45,-6.82 -6126.17,1676.51 -167.77,159.92 -305.36,331.17 -461.43,520.54 -143.32,173.87 -279.11,369.47 -405.47,575.98 -246.14,402.2 -439.16,842.87 -591.52,1347.39 -320.48,1061.3 -321.24,2390.04 -321.24,3552.87l0 10956.46z"/>
   <path class="fil1" d="M8179.54 -6.51l2366.53 2366.54c889.31,-300.18 1908.62,-98.83 2617.25,610.01 712.27,712.79 912.3,1741.01 604.2,2633.29l3687.36 3687.16c892.07,-307.24 1921.62,-108.54 2633.63,605.05 996.1,995.26 996.1,2608.79 0,3604.59 -996.07,996.07 -2609.02,996.12 -3605.46,0 -748.86,-749.4 -934.1,-1849.57 -554.91,-2772.38l-3438.43 -3438.63 -0.79 9049.36c242.97,119.69 471.99,279.94 674.35,481.76 995.9,995.28 995.9,2608.27 0.05,3605.4 -995.8,995.58 -2609.86,995.58 -3604.64,0.04 -995.54,-997.12 -1077.47,-2610.16 -81.98,-3605.44 246.13,-245.93 489.05,-431.69 752.6,-556.03l0.06 -9133.24c-263.55,-124.34 -506.26,-308.83 -752.66,-556.29 -754.2,-753.68 -894.87,-1860.4 -508.34,-2786.96l-3676.47 -3697.67c814.2,-97.53 1680.62,-96.56 2613.97,-96.56l273.68 0z"/>
  </g>
 </g>
</svg>
