<?xml version="1.0" encoding="UTF-8"?>
<!DOCTYPE svg PUBLIC "-//W3C//DTD SVG 1.1//EN" "http://www.w3.org/Graphics/SVG/1.1/DTD/svg11.dtd">
<!-- Creator: CorelDRAW 2020 (64 Bit) -->
<svg xmlns="http://www.w3.org/2000/svg" xml:space="preserve" width="264.583mm" height="264.583mm" version="1.1" style="shape-rendering:geometricPrecision; text-rendering:geometricPrecision; image-rendering:optimizeQuality; fill-rule:evenodd; clip-rule:evenodd"
viewBox="0 0 26458.32 26458.32"
 xmlns:xlink="http://www.w3.org/1999/xlink"
 xmlns:xodm="http://www.corel.com/coreldraw/odm/2003">
 <defs>
  <style type="text/css">
   <![CDATA[
    .fil0 {fill:#181616}
    .fil1 {fill:white}
   ]]>
  </style>
 </defs>
 <g id="Camada_x0020_1">
  <metadata id="CorelCorpID_0Corel-Layer"/>
  <g id="icon-github">
   <path class="fil0" d="M0.02 18629.86c0,2833.8 162.67,4459.33 1702.44,6074.41 622.02,652.44 1551.42,1178.98 2437.93,1439.06 1073.55,314.94 2387.97,314.86 3558.75,314.86l10878.91 0c1240.16,0 2456.31,8.18 3617.48,-282.9 515.66,-129.27 976.64,-336.73 1390.88,-573.16 379.49,-216.58 802.56,-539.43 1104.95,-833.23 1713.95,-1665.22 1766.71,-3751.71 1766.71,-6035.67l0 -10827.27c0,-1840.9 38.42,-3519.58 -883.78,-5084.25 -223.9,-379.9 -572.2,-826.15 -869.92,-1119.52 -1751.56,-1725.93 -3867.6,-1702.08 -6216.75,-1702.08l-10581.77 0c-2401.77,0 -4360.45,-6.82 -6126.17,1676.51 -167.77,159.92 -305.36,331.17 -461.43,520.54 -143.32,173.87 -279.11,369.47 -405.47,575.98 -246.14,402.2 -439.16,842.87 -591.52,1347.39 -320.48,1061.3 -321.24,2390.04 -321.24,3552.87l0 10956.46z"/>
   <path class="fil1" d="M9952.26 22902.71c0,-297.66 -11.58,-1280.95 -16.95,-2323.99 -3472.65,755.1 -4205.43,-1472.78 -4205.43,-1472.78 -567.82,-1442.81 -1385.96,-1826.45 -1385.96,-1826.45 -1132.74,-774.72 85.37,-758.6 85.37,-758.6 1253.26,87.85 1913.47,1286.32 1913.47,1286.32 1113.32,1907.89 2920.13,1356.4 3632.44,1037.66 112.02,-806.77 435.52,-1357.64 792.5,-1669.35 -2772.53,-315.22 -5687.29,-1385.74 -5687.29,-6168.71 0,-1362.8 487.83,-2476.32 1286.33,-3350.69 -129.81,-314.19 -557.07,-1583.78 120.72,-3303.16 0,0 1048,-335.48 3433.38,1279.51 995.9,-276.77 2063.95,-415.89 3124.97,-420.64 1060.4,4.75 2129.07,143.45 3126.84,420.23 2382.48,-1614.99 3429.24,-1279.51 3429.24,-1279.51 679.44,1719.17 252.18,2988.96 122.58,3303.16 800.36,874.36 1284.68,1987.89 1284.68,3350.69 0,4794.33 -2920.13,5849.77 -5699.69,6158.99 447.93,387.37 846.87,1147.22 846.87,2311.59 0,1670.18 -14.47,3014.39 -14.47,3425.53 0,1702.31 -6189.6,1707.3 -6189.6,0.2zm-4661.21 -5804.91c-27.49,62.01 -125.06,80.62 -213.94,38.24 -90.95,-40.51 -141.59,-125.06 -112.24,-187.27 26.87,-64.08 124.64,-81.65 214.97,-38.86 90.95,40.72 142.63,126.08 111,188.09l0.21 -0.2zm505.6 564.1c-59.32,55.19 -175.7,29.56 -254.66,-57.88 -81.86,-86.82 -97.15,-203.19 -36.59,-259.21 61.6,-54.98 174.46,-28.94 256.31,57.88 81.44,88.06 97.57,203.4 35.14,259.42l-0.2 -0.21zm492.38 718.71c-76.48,53.33 -201.74,3.51 -279.05,-107.49 -76.48,-111.21 -76.48,-244.53 2.07,-297.66 77.1,-53.33 200.5,-5.17 279.05,104.8 76.07,112.65 76.07,245.98 -2.07,300.14l0 0.21zm674.06 694.74c-68.21,75.45 -214.15,55.19 -320.81,-47.54 -108.93,-100.67 -139.32,-243.91 -70.9,-319.15 69.45,-75.65 216.01,-54.57 323.29,47.54 108.93,100.46 141.8,243.91 68.83,318.95l-0.41 0.2zm930.18 403.28c-30.39,97.77 -170.53,142.21 -312.13,100.46 -141.18,-42.79 -233.58,-157.1 -204.64,-255.9 28.94,-98.6 170.12,-144.69 312.54,-100.25 141.18,42.58 233.58,156.27 204.23,255.69zm1021.74 74.62c3.51,102.94 -116.38,188.1 -264.58,190.17 -149.45,3.51 -270.37,-80 -271.82,-181.28 0,-103.97 117.41,-188.1 266.65,-191 148.21,-2.69 269.96,80 269.96,181.9l-0.21 0.21zm950.44 -161.64c17.78,100.25 -85.37,203.4 -232.75,230.89 -144.69,26.87 -279.05,-35.55 -297.66,-134.98 -17.78,-102.94 87.23,-206.09 231.92,-232.75 147.59,-25.42 279.88,35.14 298.48,137.05l0.01 -0.21z"/>
  </g>
 </g>
</svg>
