<?xml version="1.0" encoding="UTF-8"?>
<!DOCTYPE svg PUBLIC "-//W3C//DTD SVG 1.1//EN" "http://www.w3.org/Graphics/SVG/1.1/DTD/svg11.dtd">
<!-- Creator: CorelDRAW 2020 (64 Bit) -->
<svg xmlns="http://www.w3.org/2000/svg" xml:space="preserve" width="264.583mm" height="264.583mm" version="1.1" style="shape-rendering:geometricPrecision; text-rendering:geometricPrecision; image-rendering:optimizeQuality; fill-rule:evenodd; clip-rule:evenodd"
viewBox="0 0 26458.32 26458.32"
 xmlns:xlink="http://www.w3.org/1999/xlink"
 xmlns:xodm="http://www.corel.com/coreldraw/odm/2003">
 <defs>
  <style type="text/css">
   <![CDATA[
    .fil0 {fill:#EA4335}
    .fil1 {fill:white;fill-rule:nonzero}
   ]]>
  </style>
 </defs>
 <g id="Camada_x0020_1">
  <metadata id="CorelCorpID_0Corel-Layer"/>
  <g id="icon-gmail">
   <path class="fil0" d="M-0 18629.85c0,2833.79 162.68,4459.31 1702.46,6074.39 622.01,652.44 1551.42,1178.97 2437.93,1439.06 1073.54,314.93 2387.97,314.85 3558.75,314.85l10878.93 0c1240.16,0 2456.32,8.19 3617.49,-282.9 515.65,-129.27 976.63,-336.73 1390.87,-573.16 379.49,-216.58 802.56,-539.42 1104.96,-833.22 1713.95,-1665.21 1766.71,-3751.7 1766.71,-6035.65l0 -10827.23c0,-1840.89 38.42,-3519.57 -883.78,-5084.23 -223.9,-379.9 -572.2,-826.15 -869.93,-1119.52 -1751.55,-1725.92 -3867.6,-1702.07 -6216.76,-1702.07l-10581.77 0c-2401.78,0 -4360.47,-6.82 -6126.19,1676.5 -167.77,159.92 -305.36,331.17 -461.43,520.54 -143.32,173.87 -279.11,369.47 -405.47,575.97 -246.14,402.21 -439.16,842.88 -591.52,1347.4 -320.48,1061.29 -321.25,2390.03 -321.25,3552.85l0 10956.42z"/>
   <g>
    <path class="fil1" d="M8164.87 20194.55l0 -7338.04 -4237.47 -3255.6 0.01 9043.35c0,1033.53 516.76,1550.29 1550.29,1550.29l2687.17 0zm14366.04 -10490.29l-4237.47 3255.6 0 -5064.28 1550.29 -1188.56c1395.26,-1085.2 2687.17,0 2687.17,1343.59l0.01 1653.65zm-18603.5 0l4237.47 3255.6 0 -5064.28 -1550.29 -1188.56c-1395.26,-1085.2 -2687.17,0 -2687.17,1343.59l-0.01 1653.65zm14366.04 10490.29l0 -7338.04 4237.47 -3255.6 -0.01 9043.35c0,1033.53 -516.76,1550.29 -1550.29,1550.29l-2687.17 0zm-10335.28 -7389.71l5270.99 3979.07 5064.28 -3824.05 0 -5064.28 -5064.28 3824.05 -5270.99 -3979.07 0 5064.28zm206.7 7389.71l0 0 0 0zm14366.04 -10490.29l0 0 0 0zm-18603.5 0l0 0 0 0zm14366.04 10490.29l0 0 0 0zm-10335.28 -7389.71l0 0 0 0z"/>
   </g>
  </g>
 </g>
</svg>
