<?xml version="1.0" encoding="UTF-8"?>
<!DOCTYPE svg PUBLIC "-//W3C//DTD SVG 1.1//EN" "http://www.w3.org/Graphics/SVG/1.1/DTD/svg11.dtd">
<!-- Creator: CorelDRAW 2020 (64 Bit) -->
<svg xmlns="http://www.w3.org/2000/svg" xml:space="preserve" width="264.583mm" height="264.583mm" version="1.1" style="shape-rendering:geometricPrecision; text-rendering:geometricPrecision; image-rendering:optimizeQuality; fill-rule:evenodd; clip-rule:evenodd"
viewBox="0 0 26458.32 26458.32"
 xmlns:xlink="http://www.w3.org/1999/xlink"
 xmlns:xodm="http://www.corel.com/coreldraw/odm/2003">
 <defs>
  <style type="text/css">
   <![CDATA[
    .fil0 {fill:#E44D26}
    .fil1 {fill:white}
   ]]>
  </style>
 </defs>
 <g id="Camada_x0020_1">
  <metadata id="CorelCorpID_0Corel-Layer"/>
  <g id="icon-html">
   <path class="fil0" d="M0.02 18629.86c0,2833.79 162.67,4459.32 1702.45,6074.4 622.01,652.45 1551.42,1178.98 2437.93,1439.07 1073.54,314.93 2387.96,314.85 3558.74,314.85l10878.91 0c1240.16,0 2456.31,8.19 3617.48,-282.89 515.65,-129.28 976.63,-336.74 1390.87,-573.17 379.49,-216.58 802.56,-539.42 1104.95,-833.22 1713.96,-1665.22 1766.72,-3751.72 1766.72,-6035.67l0 -10827.27c0,-1840.9 38.42,-3519.58 -883.78,-5084.24 -223.91,-379.9 -572.2,-826.16 -869.93,-1119.52 -1751.55,-1725.93 -3867.6,-1702.08 -6216.75,-1702.08l-10581.75 0c-2401.78,0 -4360.46,-6.82 -6126.18,1676.51 -167.77,159.91 -305.36,331.16 -461.43,520.54 -143.31,173.86 -279.11,369.47 -405.47,575.97 -246.13,402.21 -439.16,842.87 -591.52,1347.4 -320.48,1061.29 -321.24,2390.03 -321.24,3552.86l0 10956.46z"/>
   <polygon class="fil1" points="21281.53,6127.39 21133.47,7821 21068.3,8597.67 8631.88,8597.67 8928.71,11903.66 20772.64,11903.66 20693.3,12723.31 19929.85,21252.51 19873.65,21788.55 13215.39,23618.41 13215.39,23618.88 13207.36,23623.13 6553.6,21870.24 6101.86,16862.63 9364.16,16862.63 9595.34,19441.07 13215.39,20275.82 16841.35,19360.78 17220.12,15209.64 5956.63,15209.64 5157.76,6208.63 5080.07,5291.69 21359.45,5291.69 "/>
  </g>
 </g>
</svg>
