<?xml version="1.0" encoding="UTF-8"?>
<!DOCTYPE svg PUBLIC "-//W3C//DTD SVG 1.1//EN" "http://www.w3.org/Graphics/SVG/1.1/DTD/svg11.dtd">
<!-- Creator: CorelDRAW 2020 (64 Bit) -->
<svg xmlns="http://www.w3.org/2000/svg" xml:space="preserve" width="264.583mm" height="264.583mm" version="1.1" style="shape-rendering:geometricPrecision; text-rendering:geometricPrecision; image-rendering:optimizeQuality; fill-rule:evenodd; clip-rule:evenodd"
viewBox="0 0 26458.32 26458.32"
 xmlns:xlink="http://www.w3.org/1999/xlink"
 xmlns:xodm="http://www.corel.com/coreldraw/odm/2003">
 <defs>
  <style type="text/css">
   <![CDATA[
    .fil0 {fill:#C94B73}
    .fil1 {fill:white;fill-rule:nonzero}
   ]]>
  </style>
 </defs>
 <g id="Camada_x0020_1">
  <metadata id="CorelCorpID_0Corel-Layer"/>
  <g id="icon-instagram">
   <path class="fil0" d="M-0.01 18629.86c0,2833.79 162.68,4459.32 1702.46,6074.39 622.01,652.45 1551.42,1178.98 2437.93,1439.07 1073.54,314.93 2387.97,314.85 3558.75,314.85l10878.93 0c1240.16,0 2456.32,8.19 3617.49,-282.9 515.65,-129.27 976.63,-336.73 1390.87,-573.16 379.49,-216.58 802.56,-539.42 1104.96,-833.22 1713.95,-1665.22 1766.71,-3751.71 1766.71,-6035.66l0 -10827.25c0,-1840.9 38.42,-3519.57 -883.78,-5084.23 -223.9,-379.9 -572.2,-826.16 -869.93,-1119.52 -1751.55,-1725.93 -3867.6,-1702.08 -6216.76,-1702.08l-10581.77 0c-2401.78,0 -4360.47,-6.82 -6126.19,1676.51 -167.77,159.91 -305.36,331.16 -461.43,520.53 -143.32,173.87 -279.11,369.47 -405.47,575.98 -246.14,402.2 -439.16,842.87 -591.52,1347.39 -320.48,1061.3 -321.25,2390.04 -321.25,3552.86l0 10956.44z"/>
   <g>
    <path class="fil1" d="M9953.6 13229.16c0,-1809.47 1466.47,-3276.72 3275.94,-3276.72 1809.47,0 3276.72,1467.25 3276.72,3276.72 0,1809.47 -1467.25,3276.73 -3276.72,3276.73 -1809.47,0 -3275.94,-1467.26 -3275.94,-3276.73l0 0zm-1771.33 0c0,2787.62 2259.66,5047.27 5047.27,5047.27 2787.61,0 5047.27,-2259.65 5047.27,-5047.27 0,-2787.61 -2259.66,-5047.26 -5047.27,-5047.26 -2787.61,0 -5047.19,2259.49 -5047.19,5047.26l-0.08 0zm9114.9 -5247.39c0,0.18 0,0.33 0,0.47 0,651.32 528.2,1179.53 1179.53,1179.53 651.32,0 1179.52,-528.21 1179.52,-1179.53 0,-651.18 -527.91,-1179.38 -1179.09,-1179.52l-0.43 0c-651.08,0.29 -1179.09,528.01 -1179.53,1179.07l0 -0.02zm-8038.7 13248.35c-958.32,-43.64 -1479.2,-203.27 -1825.35,-338.13 -458.92,-178.66 -786.35,-391.45 -1130.62,-735.24 -344.26,-343.79 -557.36,-670.92 -735.23,-1129.83 -134.94,-345.99 -294.57,-867.03 -338.13,-1825.35 -47.66,-1036.1 -57.17,-1347.33 -57.17,-3972.25 0,-2624.92 10.3,-2935.29 57.17,-3972.25 43.64,-958.32 204.45,-1478.34 338.13,-1825.35 178.66,-458.92 391.44,-786.35 735.23,-1130.62 343.79,-344.26 670.92,-557.36 1130.62,-735.23 345.99,-134.94 867.03,-294.57 1825.35,-338.13 1036.1,-47.66 1347.34,-57.17 3971.07,-57.17 2623.74,0 2935.29,10.14 3972.25,57.32 958.32,43.64 1478.34,204.45 1825.35,338.13 458.92,177.88 786.35,391.45 1130.62,735.24 344.26,343.79 556.58,671.7 735.23,1130.61 134.94,346 294.57,867.03 338.14,1825.36 47.65,1036.96 57.16,1347.33 57.16,3972.25 0,2624.91 -9.51,2935.28 -57.16,3972.24 -43.65,958.33 -204.06,1479.21 -338.14,1825.36 -178.65,458.91 -391.44,786.35 -735.23,1129.82 -343.79,343.48 -671.7,556.58 -1130.62,735.24 -345.99,134.94 -867.03,294.57 -1825.35,338.13 -1036.1,47.66 -1347.33,57.17 -3972.25,57.17 -2624.92,0 -2935.29,-9.51 -3971.07,-57.17l0 -0.15zm-81.39 -17770.81c-1046.39,47.66 -1761.42,213.58 -2385.86,456.56 -646.3,250.92 -1194.15,587.56 -1741.22,1133.76 -547.06,546.19 -882.83,1094.13 -1133.76,1741.21 -242.98,624.84 -408.9,1339.47 -456.55,2385.87 -48.44,1048.04 -59.53,1383.11 -59.53,4052.45 0,2669.34 11.09,3004.41 59.53,4052.46 47.65,1046.47 213.57,1761.03 456.55,2385.86 250.93,646.3 586.78,1195.25 1133.76,1741.21 546.99,545.97 1094.13,882.13 1741.22,1133.76 625.62,242.99 1339.47,408.9 2385.86,456.56 1048.6,47.65 1383.12,59.53 4052.46,59.53 2669.34,0 3004.41,-11.09 4052.46,-59.53 1046.47,-47.66 1761.03,-213.57 2385.86,-456.56 646.3,-251.63 1194.15,-587.56 1741.22,-1133.76 547.06,-546.19 882.12,-1094.91 1133.75,-1741.21 242.99,-624.83 409.69,-1339.47 456.56,-2385.86 47.65,-1048.84 58.74,-1383.12 58.74,-4052.46 0,-2669.34 -11.09,-3004.41 -58.74,-4052.45 -47.65,-1046.48 -213.57,-1761.43 -456.56,-2385.87 -251.63,-646.3 -587.56,-1194.15 -1133.75,-1741.21 -546.2,-547.07 -1094.92,-882.84 -1740.43,-1133.76 -625.62,-242.98 -1340.26,-409.69 -2385.86,-456.56 -1048.21,-47.88 -1383.12,-59.52 -4052.07,-59.52 -2668.95,0 -3004.65,11.09 -4053.24,59.52l-0.4 0zm0 0l0 0 0 0z"/>
   </g>
  </g>
 </g>
</svg>
