<?xml version="1.0" encoding="UTF-8"?>
<!DOCTYPE svg PUBLIC "-//W3C//DTD SVG 1.1//EN" "http://www.w3.org/Graphics/SVG/1.1/DTD/svg11.dtd">
<!-- Creator: CorelDRAW 2020 (64 Bit) -->
<svg xmlns="http://www.w3.org/2000/svg" xml:space="preserve" width="264.583mm" height="264.583mm" version="1.1" style="shape-rendering:geometricPrecision; text-rendering:geometricPrecision; image-rendering:optimizeQuality; fill-rule:evenodd; clip-rule:evenodd"
viewBox="0 0 26458.32 26458.32"
 xmlns:xlink="http://www.w3.org/1999/xlink"
 xmlns:xodm="http://www.corel.com/coreldraw/odm/2003">
 <defs>
  <style type="text/css">
   <![CDATA[
    .fil0 {fill:#F0DB4F}
    .fil1 {fill:white}
   ]]>
  </style>
 </defs>
 <g id="Camada_x0020_1">
  <metadata id="CorelCorpID_0Corel-Layer"/>
  <g id="icon-js">
   <path class="fil0" d="M-0 18629.87c0,2833.8 162.67,4459.33 1702.45,6074.42 622.01,652.44 1551.42,1178.98 2437.93,1439.06 1073.54,314.94 2387.97,314.86 3558.75,314.86l10878.93 0c1240.16,0 2456.32,8.18 3617.49,-282.9 515.65,-129.27 976.63,-336.73 1390.87,-573.16 379.49,-216.59 802.56,-539.43 1104.96,-833.23 1713.95,-1665.22 1766.71,-3751.72 1766.71,-6035.68l0 -10827.29c0,-1840.9 38.42,-3519.58 -883.78,-5084.25 -223.91,-379.9 -572.2,-826.16 -869.93,-1119.53 -1751.55,-1725.93 -3867.6,-1702.08 -6216.76,-1702.08l-10581.77 0c-2401.78,0 -4360.47,-6.82 -6126.19,1676.51 -167.77,159.92 -305.36,331.17 -461.43,520.54 -143.32,173.87 -279.11,369.47 -405.47,575.98 -246.14,402.21 -439.16,842.88 -591.52,1347.4 -320.48,1061.3 -321.24,2390.04 -321.24,3552.87l0 10956.48z"/>
   <path class="fil1" d="M14938.33 23107.04c-359.48,730.45 -1045.7,1210.33 -1840.82,1441.99 -1221.82,280.57 -2390.45,120.61 -3259.82,-401.17 -581.78,-356.94 -1036.14,-906.38 -1344.57,-1539.4l1854.85 -1135.9c16.17,6.82 64.88,94.89 129.95,208.67 236.54,396.3 440.53,676.87 841.5,873.84 393.96,134.44 1258.85,220.36 1592.8,-472.87 203.99,-352.65 139.11,-1486.21 139.11,-2740.37 -0.2,-1970.78 8.96,-3933.37 8.96,-5881.73l2281.35 0c0,2143.2 11.69,4173.01 0,6264.39 4.87,1282.02 116.12,2424.94 -403.31,3382.56l0 -0.01zm9464.01 -644.51c-792.99,2712.52 -5214.23,2800.58 -6981.01,1008.47 -373.31,-421.82 -607.3,-642.18 -830.01,-1129.08 938.92,-540.09 938.92,-540.09 1852.51,-1068.68 496.26,762.79 955.09,1182.27 1780.62,1353.93 1119.92,136.77 2246.66,-248.03 1993.96,-1437.5 -259.72,-971.46 -2293.23,-1207.8 -3677.16,-2246.67 -1404.97,-943.59 -1734.25,-3236.43 -579.64,-4546.51 384.8,-484.57 1041.02,-846.18 1729.57,-1019.97l718.56 -92.94c1379.64,-27.86 2241.99,336.48 2875.02,1043.35 176.13,178.47 319.92,370.97 588.79,788.11 -734.92,468.39 -732.58,463.91 -1785.29,1145.45 -224.84,-484.37 -597.95,-788.31 -992.3,-920.42 -612.18,-185.48 -1384.13,16.18 -1544.28,663.03 -55.53,199.32 -44.04,384.8 44.23,714.09 248.03,565.61 1080.36,811.49 1826.98,1154.6 2149.25,871.7 2875.02,1806.33 3053.49,2918.85 171.84,957.82 -41.5,1579.16 -74.04,1671.9l0 -0.01z"/>
  </g>
 </g>
</svg>
