<?xml version="1.0" encoding="UTF-8"?>
<!DOCTYPE svg PUBLIC "-//W3C//DTD SVG 1.1//EN" "http://www.w3.org/Graphics/SVG/1.1/DTD/svg11.dtd">
<!-- Creator: CorelDRAW 2020 (64 Bit) -->
<svg xmlns="http://www.w3.org/2000/svg" xml:space="preserve" width="264.583mm" height="264.583mm" version="1.1" style="shape-rendering:geometricPrecision; text-rendering:geometricPrecision; image-rendering:optimizeQuality; fill-rule:evenodd; clip-rule:evenodd"
viewBox="0 0 26458.32 26458.32"
 xmlns:xlink="http://www.w3.org/1999/xlink"
 xmlns:xodm="http://www.corel.com/coreldraw/odm/2003">
 <defs>
  <style type="text/css">
   <![CDATA[
    .fil0 {fill:#297EB4}
    .fil1 {fill:#FEFEFE;fill-rule:nonzero}
   ]]>
  </style>
 </defs>
 <g id="Camada_x0020_1">
  <metadata id="CorelCorpID_0Corel-Layer"/>
  <g id="icon-linkedin">
   <path class="fil0" d="M-0 18629.86c0,2833.79 162.68,4459.32 1702.46,6074.4 622.01,652.44 1551.42,1178.98 2437.93,1439.06 1073.54,314.93 2387.97,314.86 3558.75,314.86l10878.93 0c1240.16,0 2456.32,8.18 3617.49,-282.9 515.65,-129.27 976.63,-336.73 1390.87,-573.16 379.49,-216.59 802.56,-539.43 1104.96,-833.23 1713.95,-1665.22 1766.71,-3751.71 1766.71,-6035.66l0 -10827.25c0,-1840.9 38.42,-3519.58 -883.78,-5084.24 -223.9,-379.9 -572.2,-826.15 -869.93,-1119.52 -1751.55,-1725.93 -3867.6,-1702.08 -6216.76,-1702.08l-10581.77 0c-2401.78,0 -4360.47,-6.81 -6126.19,1676.51 -167.77,159.92 -305.36,331.17 -461.43,520.54 -143.32,173.86 -279.11,369.47 -405.47,575.97 -246.14,402.21 -439.16,842.88 -591.52,1347.4 -320.48,1061.29 -321.25,2390.03 -321.25,3552.86l0 10956.44z"/>
   <path class="fil1" d="M6030.63 3769.18c1255.7,0 2276.22,1020.52 2276.22,2276.71 0,1257.3 -1020.52,2277.64 -2276.22,2277.64 -1258.9,0 -2277.83,-1020.34 -2277.83,-2277.64 0,-1256.19 1018.93,-2276.71 2277.83,-2276.71zm4426.99 6281.93l3767.1 0 0 1727.03 52.64 0c524.22,-993.71 1805.63,-2041.17 3716.36,-2041.17 3977.68,0 4711.86,2617.6 4711.86,6019.88l0 6932.23 -3925.09 0 0 -6145.96c0,-1465.53 -26.88,-3350.68 -2041.11,-3350.68 -2043.51,0 -2357.35,1596.41 -2357.35,3244.84l0 6251.8 -3924.41 0 0 -12637.97zm-6391.85 0l3927.99 0 0 12637.97 -3927.99 0 0 -12637.97z"/>
  </g>
 </g>
</svg>
