<?xml version="1.0" encoding="UTF-8"?>
<!DOCTYPE svg PUBLIC "-//W3C//DTD SVG 1.1//EN" "http://www.w3.org/Graphics/SVG/1.1/DTD/svg11.dtd">
<!-- Creator: CorelDRAW 2020 (64 Bit) -->
<svg xmlns="http://www.w3.org/2000/svg" xml:space="preserve" width="264.583mm" height="264.583mm" version="1.1" style="shape-rendering:geometricPrecision; text-rendering:geometricPrecision; image-rendering:optimizeQuality; fill-rule:evenodd; clip-rule:evenodd"
viewBox="0 0 26458.32 26458.32"
 xmlns:xlink="http://www.w3.org/1999/xlink"
 xmlns:xodm="http://www.corel.com/coreldraw/odm/2003">
 <defs>
  <style type="text/css">
   <![CDATA[
    .fil0 {fill:#3C99D4}
    .fil1 {fill:white;fill-rule:nonzero}
   ]]>
  </style>
 </defs>
 <g id="Camada_x0020_1">
  <metadata id="CorelCorpID_0Corel-Layer"/>
  <g id="icon-vscode">
   <path class="fil0" d="M0.02 18629.86c0,2833.79 162.67,4459.32 1702.44,6074.39 622.02,652.45 1551.42,1178.98 2437.93,1439.07 1073.55,314.93 2387.97,314.85 3558.75,314.85l10878.91 0c1240.16,0 2456.31,8.18 3617.48,-282.9 515.66,-129.27 976.64,-336.73 1390.88,-573.16 379.49,-216.58 802.56,-539.43 1104.95,-833.22 1713.95,-1665.22 1766.71,-3751.71 1766.71,-6035.66l0 -10827.25c0,-1840.89 38.42,-3519.57 -883.78,-5084.23 -223.9,-379.9 -572.2,-826.16 -869.92,-1119.52 -1751.56,-1725.93 -3867.6,-1702.08 -6216.75,-1702.08l-10581.77 0c-2401.77,0 -4360.45,-6.82 -6126.17,1676.51 -167.77,159.92 -305.36,331.16 -461.43,520.54 -143.32,173.86 -279.11,369.46 -405.47,575.97 -246.14,402.21 -439.16,842.87 -591.52,1347.39 -320.48,1061.3 -321.24,2390.04 -321.24,3552.86l0 10956.44z"/>
   <path class="fil1" d="M4501.52 10689.34c0,0 -411.94,-298.17 83.01,-695.82l1152.4 -1033.46c0,0 330.15,-348.25 678.94,-44.63l3017.5 2290.02 6689.97 -6102.95c0,0 65.07,-46.92 163.43,-81.89 -51.34,19.78 -105.74,46.64 -163.43,81.89 0,0 486.38,-542.85 1228.47,-83.01l3396.91 1641.36c0,0 518.77,175.42 518.77,683.71l0 11560.04c0,0 70.22,425.27 -431.54,768.21l-3918.94 1935.46c0,0 -354.1,98.39 -646.01,-201.41l-24.07 -26.8 -6816.31 -6204.23 -2906.28 2209.48c-447.19,370.57 -749.58,44.63 -749.58,44.63l-1273.24 -1160.42c-281.71,-375.88 0,-585.87 0,-585.87l2742.04 -2498.49 -2742.04 -2495.82zm12553.08 -1308.36l-4991.2 3820.43 4991.19 3787.87 0 3803.57 0.01 -2.47 0 -11409.4z"/>
  </g>
 </g>
</svg>
