<?xml version="1.0" encoding="UTF-8"?>
<!DOCTYPE svg PUBLIC "-//W3C//DTD SVG 1.1//EN" "http://www.w3.org/Graphics/SVG/1.1/DTD/svg11.dtd">
<!-- Creator: CorelDRAW 2020 (64 Bit) -->
<svg xmlns="http://www.w3.org/2000/svg" xml:space="preserve" width="264.583mm" height="264.583mm" version="1.1" style="shape-rendering:geometricPrecision; text-rendering:geometricPrecision; image-rendering:optimizeQuality; fill-rule:evenodd; clip-rule:evenodd"
viewBox="0 0 26458.32 26458.32"
 xmlns:xlink="http://www.w3.org/1999/xlink"
 xmlns:xodm="http://www.corel.com/coreldraw/odm/2003">
 <defs>
  <style type="text/css">
   <![CDATA[
    .fil0 {fill:#25D366}
    .fil1 {fill:white;fill-rule:nonzero}
   ]]>
  </style>
 </defs>
 <g id="Camada_x0020_1">
  <metadata id="CorelCorpID_0Corel-Layer"/>
  <g id="icon-whatsapp">
   <path class="fil0" d="M0.02 18629.84c0,2833.78 162.67,4459.3 1702.45,6074.37 622.01,652.45 1551.42,1178.98 2437.93,1439.06 1073.54,314.93 2387.96,314.86 3558.74,314.86l10878.91 0c1240.16,0 2456.31,8.18 3617.48,-282.9 515.65,-129.27 976.64,-336.73 1390.87,-573.16 379.49,-216.58 802.56,-539.42 1104.95,-833.22 1713.96,-1665.21 1766.72,-3751.7 1766.72,-6035.64l0 -10827.21c0,-1840.89 38.42,-3519.56 -883.78,-5084.22 -223.91,-379.9 -572.2,-826.15 -869.93,-1119.52 -1751.55,-1725.92 -3867.59,-1702.07 -6216.75,-1702.07l-10581.75 0c-2401.78,0 -4360.46,-6.81 -6126.18,1676.51 -167.77,159.91 -305.36,331.16 -461.43,520.53 -143.31,173.87 -279.11,369.47 -405.47,575.97 -246.13,402.21 -439.16,842.87 -591.52,1347.39 -320.48,1061.29 -321.24,2390.03 -321.24,3552.85l0 10956.4z"/>
   <path class="fil1" d="M3976.57 22491.8l1296 -4602.97c-833.41,-1415.83 -1272.2,-3026.73 -1272.2,-4681.58 0,-5095.35 4145.37,-9240.72 9240.72,-9240.72 5095.35,0 9240.66,4145.37 9240.66,9240.72 0,5095.35 -4145.31,9240.72 -9240.66,9240.72 -1587.68,0 -3142.32,-406.4 -4517.63,-1178.09l-4746.89 1221.92zm6668.68 -13585.46l-599.6 -32.69c-188.34,-10.28 -373.07,52.66 -515.43,176.32 -290.69,252.43 -755.49,740.46 -898.26,1376.41 -212.89,948.23 116.11,2109.37 967.63,3270.51 851.52,1161.14 2438.38,3018.95 5244.44,3812.41 904.24,255.68 1615.54,83.31 2164.35,-267.76 434.67,-278.03 734.3,-724.32 842.29,-1228.83l95.74 -447.14c30.42,-142.12 -41.74,-286.34 -173.76,-347.18l-2026.47 -934.08c-131.56,-60.61 -287.56,-22.29 -376.03,92.37l-795.55 1031.32c-60.09,77.91 -162.97,108.8 -255.86,76.17 -544.81,-191.47 -2369.77,-955.79 -3371.13,-2884.67 -43.43,-83.66 -32.63,-185.2 28.97,-256.55l760.31 -879.56c77.68,-89.81 97.3,-216.09 50.63,-325.23l-873.52 -2043.65c-46.51,-108.8 -150.72,-181.72 -268.75,-188.17zm-1679.11 10682.39l282.85 172.72c1199.11,732.04 2579.57,1118.99 3992.1,1118.99 4231,0 7673.14,-3442.19 7673.14,-7673.19 0,-4231 -3442.14,-7673.2 -7673.14,-7673.2 -4231,0 -7673.19,3442.19 -7673.19,7673.19 0,1474.24 419,2905.85 1211.59,4140.08l190.48 296.61 -746.32 2650.76 2742.49 -705.96z"/>
  </g>
 </g>
</svg>
